<svg width="21" height="21" viewBox="0 0 21 21" fill="none" xmlns="http://www.w3.org/2000/svg">
<path d="M12.5667 7.1665H4.23332C3.31415 7.1665 2.56665 7.914 2.56665 8.83317V17.1665C2.56665 18.0857 3.31415 18.8332 4.23332 18.8332H12.5667C13.4858 18.8332 14.2333 18.0857 14.2333 17.1665V8.83317C14.2333 7.914 13.4858 7.1665 12.5667 7.1665Z" fill="#D5D8DD"/>
<path d="M17.5667 2.1665H9.23332C8.79129 2.1665 8.36737 2.3421 8.05481 2.65466C7.74225 2.96722 7.56665 3.39114 7.56665 3.83317V5.49984H14.2333C14.6753 5.49984 15.0993 5.67543 15.4118 5.98799C15.7244 6.30055 15.9 6.72448 15.9 7.1665V13.8332H17.5667C18.0087 13.8332 18.4326 13.6576 18.7452 13.345C19.0577 13.0325 19.2333 12.6085 19.2333 12.1665V3.83317C19.2333 3.39114 19.0577 2.96722 18.7452 2.65466C18.4326 2.3421 18.0087 2.1665 17.5667 2.1665Z" fill="#D5D8DD"/>
</svg>
