<svg width="76" height="50" viewBox="0 0 76 50" fill="none" xmlns="http://www.w3.org/2000/svg">
<ellipse opacity="0.8" cx="38.0001" cy="40.0325" rx="37.377" ry="7.47541" fill="url(#paint0_linear_1344_6627)" fill-opacity="0.2"/>
<g filter="url(#filter0_f_1344_6627)">
<path d="M35.5471 43.5836L16.6655 38.8977L35.9249 28.4844L57.9356 38.5505L35.5471 43.5836Z" fill="#56698B"/>
</g>
<path d="M60.0264 35.5741L39.0029 32.7095V3.13916L60.0264 8.55316V35.5741Z" fill="url(#paint1_linear_1344_6627)"/>
<path d="M39.0029 32.7095L15.125 36.3586V8.83331L39.0029 3.13916V32.7095Z" fill="url(#paint2_linear_1344_6627)"/>
<path d="M36.1484 43.8457L17.1194 38.943C16.5401 38.7939 16.0271 38.4578 15.6609 37.9875C15.2948 37.5171 15.0963 36.9392 15.0967 36.3445V8.86133L36.1656 14.3084L36.1484 43.8457Z" fill="url(#paint3_linear_1344_6627)"/>
<path d="M57.503 38.7606L36.1553 43.8524V14.282L60.0331 8.58789V35.5528C60.0377 36.2928 59.7901 37.0126 59.3308 37.595C58.8714 38.1775 58.2271 38.5882 57.503 38.7606Z" fill="url(#paint4_linear_1344_6627)"/>
<path d="M59.3496 21.5875L39.9048 26.4902C39.7866 26.5189 39.6638 26.5234 39.5438 26.5033C39.4238 26.4833 39.3092 26.4391 39.207 26.3736C39.1047 26.308 39.017 26.2224 38.9492 26.1221C38.8813 26.0217 38.8348 25.9086 38.8124 25.7898L36.4867 15.1579C36.461 15.0423 36.459 14.9228 36.4808 14.8065C36.5026 14.6901 36.5477 14.5793 36.6135 14.4806C36.6792 14.382 36.7643 14.2975 36.8636 14.2321C36.9628 14.1668 37.0744 14.1219 37.1914 14.1003L56.9957 9.70888C57.1128 9.6833 57.234 9.68119 57.3519 9.70268C57.4699 9.72417 57.5824 9.76885 57.6828 9.83407C57.7832 9.89928 57.8695 9.98373 57.9367 10.0825C58.0039 10.1813 58.0505 10.2924 58.074 10.4093L60.0403 20.5509C60.0861 20.7793 60.0392 21.0164 59.9098 21.2105C59.7804 21.4047 59.5791 21.5402 59.3496 21.5875Z" fill="url(#paint5_linear_1344_6627)" fill-opacity="0.2"/>
<path d="M63.7759 19.0867L40.2715 24.7739L36.2896 14.2961L60.1674 8.5249L63.7759 19.0867Z" fill="url(#paint6_linear_1344_6627)"/>
<path d="M32.9912 25.9508L15.1392 20.1446V8.86133L36.1627 14.2753L34.1118 25.2994C34.0901 25.4202 34.0423 25.5348 33.9717 25.6355C33.9011 25.7361 33.8093 25.8202 33.7028 25.8822C33.5962 25.9441 33.4774 25.9823 33.3546 25.9942C33.2317 26.006 33.1077 25.9912 32.9912 25.9508Z" fill="url(#paint7_linear_1344_6627)" fill-opacity="0.2"/>
<path d="M32.6389 24.1928L12.6726 18.1835C12.5818 18.1565 12.4975 18.1116 12.4246 18.0514C12.3517 17.9913 12.2917 17.9172 12.2483 17.8335C12.2049 17.7498 12.1789 17.6582 12.1719 17.5644C12.1648 17.4705 12.1769 17.3761 12.2075 17.287L15.1252 8.88232L36.1487 14.2963L33.527 23.7305C33.4997 23.8191 33.455 23.9015 33.3954 23.9728C33.3359 24.0441 33.2627 24.1029 33.1801 24.1459C33.0975 24.1889 33.0071 24.2152 32.9142 24.2232C32.8214 24.2313 32.7278 24.2209 32.6389 24.1928Z" fill="url(#paint8_linear_1344_6627)"/>
<path d="M58.4762 32.7517C58.4755 32.8238 58.451 32.8937 58.4065 32.9507C58.3619 33.0076 58.2998 33.0484 58.2296 33.0668L50.0401 35.0419V34.2925C50.0392 34.2192 50.063 34.1477 50.1076 34.0893C50.1523 34.0309 50.2154 33.989 50.2867 33.9703L58.4762 32.0513V32.7517Z" fill="#B6BECD"/>
<path d="M58.476 34.8875C58.4745 34.9378 58.4564 34.9863 58.4246 35.0254C58.3928 35.0646 58.349 35.0924 58.2998 35.1046L53.1973 36.3583V35.5529C53.1972 35.4913 53.218 35.4316 53.2564 35.3832C53.2948 35.3349 53.3484 35.3009 53.4087 35.2867L58.469 34.04L58.476 34.8875Z" fill="#B6BECD"/>
<defs>
<filter id="filter0_f_1344_6627" x="11.6819" y="23.5008" width="51.2372" height="25.0663" filterUnits="userSpaceOnUse" color-interpolation-filters="sRGB">
<feFlood flood-opacity="0" result="BackgroundImageFix"/>
<feBlend mode="normal" in="SourceGraphic" in2="BackgroundImageFix" result="shape"/>
<feGaussianBlur stdDeviation="2.4918" result="effect1_foregroundBlur_1344_6627"/>
</filter>
<linearGradient id="paint0_linear_1344_6627" x1="77.7132" y1="50.9442" x2="24.197" y2="-0.577003" gradientUnits="userSpaceOnUse">
<stop stop-color="#8792AD"/>
<stop offset="1" stop-color="#C1CDE4"/>
</linearGradient>
<linearGradient id="paint1_linear_1344_6627" x1="38.8572" y1="10.6694" x2="59.8997" y2="46.0042" gradientUnits="userSpaceOnUse">
<stop stop-color="#C7D1E3"/>
<stop offset="1" stop-color="#F4F8FF"/>
</linearGradient>
<linearGradient id="paint2_linear_1344_6627" x1="14.9595" y1="10.8515" x2="35.3931" y2="48.9021" gradientUnits="userSpaceOnUse">
<stop stop-color="#B4BDCF"/>
<stop offset="1" stop-color="#CCDAF4"/>
</linearGradient>
<linearGradient id="paint3_linear_1344_6627" x1="14.9507" y1="16.9834" x2="2.95912" y2="55.1482" gradientUnits="userSpaceOnUse">
<stop stop-color="#C7D1E3"/>
<stop offset="1" stop-color="#F4F8FF"/>
</linearGradient>
<linearGradient id="paint4_linear_1344_6627" x1="62.295" y1="8.88477" x2="23.7667" y2="49.7509" gradientUnits="userSpaceOnUse">
<stop stop-color="#C7D1E3"/>
<stop offset="1" stop-color="#F4F8FF"/>
</linearGradient>
<linearGradient id="paint5_linear_1344_6627" x1="60.7947" y1="30.3833" x2="30.4623" y2="22.1954" gradientUnits="userSpaceOnUse">
<stop stop-color="#746880"/>
<stop offset="1" stop-color="#312B31"/>
</linearGradient>
<linearGradient id="paint6_linear_1344_6627" x1="36.0991" y1="12.2973" x2="47.8936" y2="27.9367" gradientUnits="userSpaceOnUse">
<stop stop-color="#C7D1E3"/>
<stop offset="1" stop-color="#F4F8FF"/>
</linearGradient>
<linearGradient id="paint7_linear_1344_6627" x1="36.8196" y1="29.9368" x2="9.35215" y2="23.4486" gradientUnits="userSpaceOnUse">
<stop stop-color="#746880"/>
<stop offset="1" stop-color="#312B31"/>
</linearGradient>
<linearGradient id="paint8_linear_1344_6627" x1="9.96708" y1="15.1143" x2="22.6904" y2="28.6291" gradientUnits="userSpaceOnUse">
<stop stop-color="#9CABC7"/>
<stop offset="1" stop-color="#D5E0F3"/>
</linearGradient>
</defs>
</svg>
